<svg width="316" height="306" viewBox="0 0 316 306" fill="none" xmlns="http://www.w3.org/2000/svg">
<path d="M157.98 305.17C157.391 305.17 156.762 305.048 156.153 304.805L3.77589 241.426C1.50222 240.492 0 237.954 0 235.112V83.6697C0 81.4975 0.893194 79.4874 2.37514 78.2287C3.85709 77.0107 5.74507 76.6657 7.47063 77.3763L159.847 140.755C162.101 141.668 163.603 144.206 163.603 147.069V298.491C163.603 300.683 162.75 302.693 161.248 303.972C160.274 304.764 159.137 305.19 157.959 305.19L157.98 305.17ZM11.2465 230.342L152.397 289.051V151.778L11.2465 93.0686V230.342Z" fill="#474F59"/>
<path d="M164.577 70.7578C165.125 70.5345 165.673 70.3115 166.201 70.0476L164.577 70.7578Z" fill="#474F59"/>
<path d="M148.032 69.1541C149.616 70.0676 151.26 70.7782 153.006 71.2451L148.032 69.1541Z" fill="#474F59"/>
<path d="M157.979 85.2732C139.1 85.2732 123.712 66.9414 123.712 44.3874C123.712 21.8334 139.1 3.54272 157.979 3.54272C176.859 3.54272 192.308 21.874 192.308 44.3874C192.308 66.9008 176.9 85.2732 157.979 85.2732ZM157.979 16.9205C145.271 16.9205 134.898 29.2431 134.898 44.3874C134.898 59.5317 145.271 71.8949 157.979 71.8949C170.688 71.8949 181.061 59.5723 181.061 44.3874C181.061 29.2025 170.728 16.9205 157.979 16.9205Z" fill="#474F59"/>
<path d="M77.833 88.8056C76.6352 88.8056 75.4781 88.3791 74.5036 87.5264C73.042 86.2678 72.23 84.2379 72.23 82.1063V6.7094C72.23 4.57783 73.042 2.56824 74.5036 1.3096C75.945 0.0509624 77.8127 -0.314469 79.4773 0.27425L130.31 19.1336C132.665 20.0269 134.269 22.6252 134.269 25.5485V63.2266C134.269 66.1702 132.665 68.7685 130.31 69.6211L79.4773 88.4805C78.9495 88.7038 78.3811 88.7853 77.833 88.7853V88.8056ZM83.436 15.8041V73.032L123.043 58.3343V30.4616L83.436 15.8041Z" fill="#474F59"/>
<path d="M238.188 88.8056C237.619 88.8056 237.071 88.7241 236.503 88.5008L185.67 69.6414C183.295 68.7888 181.731 66.1905 181.731 63.2469V25.5687C181.731 22.6251 183.315 20.0268 185.67 19.1539L236.503 0.294513C238.208 -0.294206 240.055 0.0712261 241.497 1.32987C242.938 2.58851 243.77 4.57779 243.77 6.72966V82.1266C243.77 84.2582 242.938 86.2881 241.497 87.5467C240.522 88.3993 239.345 88.8259 238.167 88.8259L238.188 88.8056ZM192.958 58.3343L232.564 73.0319V15.804L192.958 30.4615V58.3343Z" fill="#474F59"/>
<path d="M315.716 81.741C315.695 81.6192 315.655 81.5173 315.594 81.3955C315.452 80.9083 315.249 80.4822 315.046 80.0559C314.964 79.9341 314.924 79.7921 314.822 79.6906C314.538 79.244 314.254 78.8988 313.889 78.5537C313.807 78.4725 313.767 78.4113 313.706 78.3301C313.685 78.3098 313.665 78.2691 313.604 78.2488C313.198 77.9037 312.772 77.6603 312.285 77.4167H312.264C312.264 77.4167 312.244 77.3964 312.224 77.3964L243.79 48.9348V63.1046L293.344 83.7101L238.147 106.67L175.255 80.5024L193.932 72.7068L185.69 69.6617C185.467 69.6008 185.324 69.4589 185.142 69.3574C178.869 79.0205 169.064 85.2936 158 85.2936C146.936 85.2936 137.151 79.0205 130.878 69.3574C130.695 69.4386 130.533 69.6211 130.33 69.6617L122.311 72.6662L141.191 80.5024L78.0964 106.751L22.6959 83.7101L72.2498 63.1046V48.9348L3.81629 77.3964C3.81629 77.3964 3.67416 77.4777 3.59296 77.5183C3.18694 77.6807 2.78094 77.9647 2.39522 78.2692C2.37492 78.2895 2.35461 78.3301 2.314 78.3301C2.2125 78.4519 2.13133 78.5538 2.02983 78.6553C2.02983 78.6553 1.94863 78.7767 1.90803 78.8173C0.75089 80.0354 0.0200195 81.7816 0.0200195 83.7304V235.173C0.0200195 237.995 1.5223 240.533 3.79597 241.487L156.173 304.865H156.254C156.822 305.129 157.411 305.231 158 305.231C158.649 305.231 159.279 305.109 159.867 304.865L312.244 241.487C314.498 240.553 316 238.015 316 235.173V83.7304C316 83.0808 315.878 82.4511 315.736 81.7811L315.716 81.741ZM72.4731 255.839L11.2463 230.362V93.0887L54.7912 111.197L72.4731 118.566V255.839ZM152.397 289.071L83.6993 260.508V123.235L152.397 151.798V289.071ZM158 140.004L95.1286 113.816L158.223 87.567L221.114 113.755L158 140.004ZM232.747 260.326L163.623 289.071V151.798L165.328 151.108L232.747 123.073V260.305V260.326ZM304.774 230.382L243.973 255.677V118.404L304.774 93.1091V230.382Z" fill="#474F59"/>
</svg>
