<svg width="527" height="275" viewBox="0 0 527 275" fill="none" xmlns="http://www.w3.org/2000/svg">
<g filter="url(#filter0_d_3_711)">
<path d="M156.94 4.57999V47.95C156.94 71 148.72 83.1 134.8 86.75H156.94V157.96H87.32V86.75H95.7599L80.47 78.08V95.88H66.09V114.82H80.47V139.47H66.09V161.38C75.45 162.52 86.18 162.52 99.64 162.52H156.93V187.17H99.64C67.91 187.17 48.28 186.71 30.25 176.9C29.57 180.1 28.88 183.52 27.74 187.17L4 181.01C9.71 158.19 9.47998 137.19 9.47998 111.85H34.13C34.13 126 34.36 137.87 33.67 149.05C36.41 150.88 38.92 152.47 41.43 153.84V95.86H4V71.21H29.79V41.54H8.56V16.89H29.79V0H54.44V16.89H75.9V41.54H54.44V71.21H80.46V75.55C84.11 70.3 93.93 54.09 95.52 29.22H85.7V4.57001H156.91L156.94 4.57999ZM132.06 29.23H120.19C118.82 60.73 107.18 80.13 102.61 86.75H124.07V63.47C127.95 63.47 132.06 59.82 132.06 47.95V29.23ZM132.06 133.31V111.4H111.97V133.31H132.06Z" fill="white"/>
<path d="M248.47 0.0195312C248.47 5.94953 248.24 11.6595 247.79 17.1395H339.55V41.7896H243.68L239.57 55.4895H339.54V147.25C339.54 175.55 327.21 187.19 302.11 187.19H288.19V162.54H302.11C310.55 162.54 314.89 159.12 314.89 147.25H235.23V187.19H210.58V105.7C204.42 112.55 200.08 115.74 200.08 115.74L186.38 95.1995C186.38 95.1995 207.15 76.7095 217.65 41.7896H186.84V17.1395H222.9C223.58 11.6595 223.81 5.95953 223.81 0.0195312H248.46H248.47ZM314.89 80.1395H235.23V94.7495H314.89V80.1395ZM314.89 128.3V113.69H235.23V128.3H314.89Z" fill="white"/>
<path d="M441.11 95.8801V187.18H369.21V95.8801H441.11ZM376.06 83.5501V4.58008H515.29V83.5501H376.06ZM416.46 162.52V120.52H393.86V162.52H416.46ZM400.71 29.2201V58.8901H490.64V29.2201H400.71ZM450.24 187.17V95.8701H522.14V187.17H450.24ZM474.89 120.52V162.52H497.49V120.52H474.89Z" fill="white"/>
</g>
<path d="M96.37 257.77C96.37 253.82 93.63 250.95 88.02 249.61C80.3 247.7 74.44 244.06 74.44 234.43C74.44 225.44 81.71 221.1 88.02 221.1C95.29 221.1 101.92 225.05 101.92 234.43H95.03C95.03 229.9 92.8 227.99 88.02 227.99C84.13 227.99 81.32 230.22 81.32 234.43C81.32 239.21 83.36 241.57 88.02 242.72C96.25 244.63 103.26 248.2 103.26 257.77C103.26 267.34 97.01 273.39 88.02 273.39C79.03 273.39 72.71 267.33 72.71 257.77H79.6C79.6 262.87 82.6 266.51 88.02 266.51C93.44 266.51 96.37 262.87 96.37 257.77Z" fill="white"/>
<path d="M116.01 221.73H122.9V260.06C122.9 264.59 125.2 266.5 129.98 266.5C134.76 266.5 136.99 264.59 136.99 260.06V221.73H143.88V260.06C143.88 269.43 137.25 273.391 129.98 273.391C122.71 273.391 116.01 269.44 116.01 260.06V221.73Z" fill="white"/>
<path d="M156.64 272.75V221.73H169.52C178.51 221.73 184.76 227.79 184.76 237.36C184.76 246.93 178.51 253.05 169.52 253.05H163.53V272.76H156.64V272.75ZM163.53 228.62V246.16H169.52C174.94 246.16 177.87 242.52 177.87 237.36C177.87 232.2 174.94 228.62 169.52 228.62H163.53Z" fill="white"/>
<path d="M223.47 272.75H196.24V221.73H223.47V228.62H203.13V242.84H222.2V249.73H203.13V265.87H223.47V272.76V272.75Z" fill="white"/>
<path d="M257.27 251.01L264.86 272.76H257.53L250.71 252.99C250.14 252.99 249.63 253.05 249.12 253.05H243.13V272.76H236.24V221.74H249.12C258.11 221.74 264.36 227.8 264.36 237.37C264.36 243.68 261.68 248.47 257.28 251.02L257.27 251.01ZM249.11 246.16C254.53 246.16 257.46 242.52 257.46 237.36C257.46 232.2 254.53 228.62 249.11 228.62H243.12V246.16H249.11Z" fill="white"/>
<path d="M295.47 221.73H302.36V260.06C302.36 264.59 304.66 266.5 309.44 266.5C314.22 266.5 316.46 264.59 316.46 260.06V221.73H323.35V260.06C323.35 269.43 316.72 273.391 309.45 273.391C302.18 273.391 295.48 269.44 295.48 260.06V221.73H295.47Z" fill="white"/>
<path d="M355.23 272.75V221.73H368.11C377.1 221.73 383.35 227.79 383.35 237.36C383.35 246.93 377.1 253.05 368.11 253.05H362.12V272.76H355.23V272.75ZM362.12 228.62V246.16H368.11C373.53 246.16 376.46 242.52 376.46 237.36C376.46 232.2 373.53 228.62 368.11 228.62H362.12Z" fill="white"/>
<path d="M398.02 272.75V221.73H404.91V272.75H398.02Z" fill="white"/>
<path d="M427.74 240.55V272.76H420.85V219.83L446.3 253.95V221.74H453.19V274.67L427.74 240.55Z" fill="white"/>
<defs>
<filter id="filter0_d_3_711" x="0" y="0" width="526.14" height="195.189" filterUnits="userSpaceOnUse" color-interpolation-filters="sRGB">
<feFlood flood-opacity="0" result="BackgroundImageFix"/>
<feColorMatrix in="SourceAlpha" type="matrix" values="0 0 0 0 0 0 0 0 0 0 0 0 0 0 0 0 0 0 127 0" result="hardAlpha"/>
<feOffset dy="4"/>
<feGaussianBlur stdDeviation="2"/>
<feComposite in2="hardAlpha" operator="out"/>
<feColorMatrix type="matrix" values="0 0 0 0 0 0 0 0 0 0 0 0 0 0 0 0 0 0 0.25 0"/>
<feBlend mode="normal" in2="BackgroundImageFix" result="effect1_dropShadow_3_711"/>
<feBlend mode="normal" in="SourceGraphic" in2="effect1_dropShadow_3_711" result="shape"/>
</filter>
</defs>
</svg>
