<svg width="548" height="89" viewBox="0 0 548 89" fill="none" xmlns="http://www.w3.org/2000/svg">
<path d="M548 28.1201H15V88.1201H548V28.1201Z" fill="url(#paint0_linear_0_1)"/>
<path d="M11.0758 11.2374H52.62V18.2212H11.0758V11.2374ZM8.62851 28.846H50.3518V35.7103H8.62851V28.846ZM1.70447 47.7677H55.6642V54.7514H1.70447V47.7677ZM24.9239 0.433541H32.3851V51.2297H24.9239V0.433541ZM11.1355 1.14982L18.5371 2.82114C15.9107 12.0731 11.5533 21.2654 6.8975 26.9956C5.46494 25.7421 2.30137 23.653 0.450981 22.6382C5.16649 17.6243 8.98665 9.38704 11.1355 1.14982ZM94.3433 12.5506H121.025V18.7584H94.3433V12.5506ZM95.5371 23.9514H120.01V30.0995H95.5371V23.9514ZM93.9255 35.6506H122.398V41.9181H93.9255V35.6506ZM104.192 15.1173H111.116V56.3631H104.192V15.1173ZM95.0596 2.58238L100.969 0.49323C102.939 3.83587 104.729 8.25293 105.386 11.2374L99.1782 13.625C98.641 10.5808 96.9697 5.98471 95.0596 2.58238ZM113.504 0.373851L120.786 2.04517C118.936 6.10409 117.026 10.2824 115.414 13.0281L109.505 11.4762C110.997 8.432 112.668 3.77618 113.504 0.373851ZM75.1829 5.86533H85.6286V11.2374H75.1829V5.86533ZM78.6449 18.8778H83.5991V37.7398H78.6449V18.8778ZM83.4798 5.86533H84.9123L86.1061 5.50719L90.0457 8.19324C88.1953 12.3715 85.5092 17.1467 83.1216 20.2506C82.286 19.0568 80.4356 17.2661 79.4208 16.3708C80.9131 13.8638 82.6441 9.68549 83.4798 6.93975V5.86533ZM87.479 42.1569L91.7767 40.5452C93.6868 44.0669 95.4775 48.6034 96.134 51.5879L91.5379 53.3786C91.0007 50.3344 89.2697 45.6189 87.479 42.1569ZM81.5697 42.3359L85.9271 41.4406C87.2999 44.9623 88.3743 49.6181 88.6131 52.6623L83.9573 53.677C83.7782 50.6328 82.8232 45.9173 81.5697 42.3359ZM75.7201 42.1569L80.3162 41.6196C80.9728 45.3801 81.2115 50.2747 81.0922 53.4383L76.2573 54.0352C76.4363 50.8716 76.2573 45.977 75.7201 42.1569ZM75.3619 30.2785V34.0987H87.0015V30.2785H75.3619ZM75.3619 21.2654V25.0258H87.0015V21.2654H75.3619ZM69.572 15.5948H93.0302V39.8289H69.572V15.5948ZM69.9301 41.56L74.8844 42.8134C74.2875 47.9468 73.2728 53.2592 70.4673 56.5421L65.8712 53.9158C68.3185 50.991 69.4526 46.2755 69.9301 41.56ZM74.2875 0.373851L80.734 1.2692C78.8836 8.49169 75.8991 16.1917 70.7061 22.5785C69.572 21.2057 67.3635 19.1762 65.8712 18.3405C70.4077 13.0281 73.034 6.10409 74.2875 0.373851ZM144.483 0.49323L151.228 2.64207C147.408 12.7894 141.2 23.5336 134.694 30.3979C134.037 28.6669 132.067 24.7274 130.874 22.9367C136.246 17.5646 141.439 9.0289 144.483 0.49323ZM138.454 17.1467L145.498 10.163V10.2227V56.4228H138.454V17.1467ZM150.333 12.0731H187.281V18.9374H150.333V12.0731ZM148.9 30.8754H187.818V37.8592H148.9V30.8754ZM156.958 0.911061H163.942V34.4568H156.958V0.911061ZM172.537 0.791679H179.581V34.5762H172.537V0.791679ZM158.51 40.2468L165.255 42.3956C162.271 47.5886 157.436 52.9011 153.257 56.2437C151.944 54.9902 149.258 52.722 147.647 51.7669C151.885 48.9615 156.063 44.5445 158.51 40.2468ZM171.642 43.4103L177.312 40.2468C181.192 44.0072 185.371 49.0809 187.46 52.6026L181.431 56.3631C179.581 52.7817 175.343 47.3499 171.642 43.4103ZM227.154 21.5041H249.716V25.0258H227.154V21.5041ZM227.154 27.2344H249.716V30.7561H227.154V27.2344ZM224.587 33.084H251.985V37.4413H224.587V33.084ZM238.554 10.3421L245.001 11.8343C243.568 14.1026 242.136 16.1917 241.061 17.6243L235.988 16.1917C236.883 14.4607 238.017 12.0134 238.554 10.3421ZM216.708 9.98394L222.498 11.715C219.513 17.7436 214.857 23.832 210.381 27.6522C209.485 26.5181 207.277 24.1305 206.023 23.0561C210.202 19.8925 214.32 14.9382 216.708 9.98394ZM227.81 9.74518L233.66 11.4165C231.213 17.087 227.273 22.9964 223.513 26.6971C222.498 25.6227 220.17 23.653 218.797 22.7576C222.438 19.5343 225.84 14.6398 227.81 9.74518ZM235.689 17.087H241.599V34.5762H235.689V17.087ZM220.23 42.3956H226.736V48.9018C226.736 50.3344 227.094 50.5135 229.064 50.5135C230.019 50.5135 233.958 50.5135 235.152 50.5135C236.764 50.5135 237.122 49.9762 237.301 46.1561C238.554 47.0514 241.3 48.0065 242.971 48.4243C242.315 54.6321 240.524 56.184 235.809 56.184C234.495 56.184 229.482 56.184 228.168 56.184C221.722 56.184 220.23 54.453 220.23 48.9615V42.3956ZM223.453 40.1274L227.512 36.3669C230.974 37.9189 235.391 40.4855 237.54 42.515L233.182 46.6933C231.213 44.6638 226.975 41.8584 223.453 40.1274ZM239.868 43.5297L245.419 40.9034C248.702 44.4251 252.283 49.26 253.656 52.7817L247.627 55.7065C246.433 52.3638 243.091 47.2305 239.868 43.5297ZM212.41 41.739L218.2 43.7685C216.947 48.0662 215.096 52.6623 211.754 55.4677L206.322 52.0057C209.247 49.6181 211.395 45.6189 212.41 41.739ZM228.228 15.2367H251.268V19.415H225.303L228.228 15.2367ZM224.587 20.1909L230.556 15.356V35.8894H224.587V20.1909ZM223.692 0.433541H231.153V8.07386H223.692V0.433541ZM205.486 4.61184H252.82V10.4615H205.486V4.61184ZM201.547 4.61184H208.112V22.2204C208.112 31.9499 207.277 47.0514 202.263 56.6018C201.129 55.3483 198.264 53.1398 196.831 52.4235C201.248 43.7088 201.547 31.1142 201.547 22.2204V4.61184ZM213.126 19.8925L218.976 14.0429L219.095 14.1622V38.5158H213.126V19.8925ZM267.504 33.1437H314.838V38.7545H267.504V33.1437ZM264.4 3.47773H292.037V8.25293H264.4V3.47773ZM291.38 41.56H310.003V46.8127H291.38V41.56ZM263.923 49.7972H318.599V55.5871H263.923V49.7972ZM287.5 35.4119H294.603V52.6026H287.5V35.4119ZM275.144 0.433541H281.412V31.8902H275.144V0.433541ZM272.757 40.784H279.561V53.1398H272.757V40.784ZM271.324 14.5204V17.684H285.351V14.5204H271.324ZM265.773 10.2824H291.261V21.9219H265.773V10.2824ZM281.651 20.9072C283.561 21.7429 289.649 24.9064 291.261 25.8615L287.799 30.2785C285.65 28.4878 280.696 25.1452 278.248 23.653L281.651 20.9072ZM298.543 0.49323L304.93 1.92579C302.841 8.90952 299.14 15.5948 294.603 19.7134C293.708 18.4002 291.38 15.8933 290.007 14.7591C294.006 11.4165 296.991 6.10409 298.543 0.49323ZM298.662 6.52192H318.3V12.0731H295.916L298.662 6.52192ZM308.272 9.08859L314.898 9.68549C312.152 21.8026 305.168 28.4282 294.126 32.3677C293.409 30.9948 291.38 28.3685 290.067 27.2344C300.274 24.4289 306.422 18.8778 308.272 9.08859ZM299.796 9.80487C302.363 16.6095 308.571 24.0111 319.315 26.8165C318.002 28.07 316.211 30.6964 315.316 32.3677C304.392 28.6669 298.006 19.9522 295.2 12.3715L299.796 9.80487ZM274.547 20.0715L279.024 21.9219C276.278 25.7421 271.324 29.9801 267.265 32.1886C266.37 30.8158 264.52 28.7863 263.206 27.7716C267.265 26.1599 272.04 22.9964 274.547 20.0715ZM341.937 19.7134H371.902V25.9809H341.937V19.7134ZM341.221 48.0662H372.021V54.3336H341.221V48.0662ZM338.058 31.9499H376.08V56.6018H368.738V38.277H345.101V56.6018H338.058V31.9499ZM356.621 7.53665C351.727 14.5204 342.534 22.3995 332.686 27.6522C331.73 25.9809 329.761 23.3545 328.209 21.8623C338.535 16.8483 348.145 7.8351 352.562 0.49323H360.024C366.53 9.68549 376.14 17.2661 385.75 21.146C383.959 22.9367 382.288 25.384 381.034 27.5925C371.842 22.7576 361.814 14.6398 356.621 7.53665ZM403.929 51.1104H394.094L409.08 7.69944H420.908L435.873 51.1104H426.038L415.164 17.6195H414.825L403.929 51.1104ZM403.315 34.047H426.546V41.2115H403.315V34.047ZM446.897 63.3197V18.5522H455.8V24.0209H456.203C456.598 23.1448 457.171 22.2545 457.92 21.3501C458.683 20.4316 459.672 19.6685 460.887 19.0609C462.117 18.4391 463.643 18.1282 465.466 18.1282C467.84 18.1282 470.03 18.75 472.037 19.9935C474.043 21.223 475.647 23.0812 476.848 25.5683C478.049 28.0412 478.65 31.143 478.65 34.8737C478.65 38.5054 478.064 41.5718 476.891 44.073C475.732 46.5601 474.149 48.4466 472.143 49.7326C470.15 51.0044 467.917 51.6403 465.444 51.6403C463.692 51.6403 462.201 51.3506 460.972 50.7712C459.757 50.1918 458.76 49.4641 457.983 48.5879C457.206 47.6977 456.612 46.8003 456.203 45.896H455.927V63.3197H446.897ZM455.736 34.8313C455.736 36.7672 456.005 38.4559 456.542 39.8973C457.079 41.3387 457.856 42.4621 458.873 43.2676C459.891 44.0589 461.127 44.4546 462.583 44.4546C464.053 44.4546 465.296 44.0518 466.314 43.2464C467.331 42.4268 468.101 41.2963 468.624 39.8549C469.161 38.3994 469.429 36.7248 469.429 34.8313C469.429 32.9518 469.168 31.2985 468.645 29.8712C468.122 28.444 467.352 27.3276 466.335 26.5221C465.317 25.7167 464.067 25.3139 462.583 25.3139C461.113 25.3139 459.87 25.7025 458.852 26.4797C457.849 27.257 457.079 28.3592 456.542 29.7864C456.005 31.2137 455.736 32.8953 455.736 34.8313ZM490.639 63.3197V18.5522H499.542V24.0209H499.944C500.34 23.1448 500.912 22.2545 501.661 21.3501C502.424 20.4316 503.413 19.6685 504.629 19.0609C505.858 18.4391 507.384 18.1282 509.207 18.1282C511.581 18.1282 513.772 18.75 515.778 19.9935C517.785 21.223 519.389 23.0812 520.59 25.5683C521.791 28.0412 522.392 31.143 522.392 34.8737C522.392 38.5054 521.805 41.5718 520.632 44.073C519.474 46.5601 517.891 48.4466 515.884 49.7326C513.892 51.0044 511.659 51.6403 509.186 51.6403C507.434 51.6403 505.943 51.3506 504.714 50.7712C503.498 50.1918 502.502 49.4641 501.725 48.5879C500.948 47.6977 500.354 46.8003 499.944 45.896H499.669V63.3197H490.639ZM499.478 34.8313C499.478 36.7672 499.746 38.4559 500.283 39.8973C500.82 41.3387 501.598 42.4621 502.615 43.2676C503.633 44.0589 504.869 44.4546 506.324 44.4546C507.794 44.4546 509.038 44.0518 510.055 43.2464C511.073 42.4268 511.843 41.2963 512.366 39.8549C512.903 38.3994 513.171 36.7248 513.171 34.8313C513.171 32.9518 512.91 31.2985 512.387 29.8712C511.864 28.444 511.094 27.3276 510.076 26.5221C509.059 25.7167 507.808 25.3139 506.324 25.3139C504.855 25.3139 503.611 25.7025 502.594 26.4797C501.591 27.257 500.82 28.3592 500.283 29.7864C499.746 31.2137 499.478 32.8953 499.478 34.8313Z" fill="white"/>
<defs>
<linearGradient id="paint0_linear_0_1" x1="306.705" y1="58.1151" x2="643.15" y2="58.1151" gradientUnits="userSpaceOnUse">
<stop stop-color="#911AAD"/>
<stop offset="1" stop-color="#4C1A57"/>
</linearGradient>
</defs>
</svg>
