<svg width="66" height="66" viewBox="0 0 66 66" fill="none" xmlns="http://www.w3.org/2000/svg">
<path d="M33.21 63.8995C50.4358 63.8995 64.4 49.9353 64.4 32.7095C64.4 15.4838 50.4358 1.51953 33.21 1.51953C15.9843 1.51953 2.02002 15.4838 2.02002 32.7095C2.02002 49.9353 15.9843 63.8995 33.21 63.8995Z" stroke="url(#paint0_radial_0_1)" stroke-width="3" stroke-miterlimit="10"/>
<path d="M50.36 11.8296V21.4896C50.36 26.6196 48.5301 29.3196 45.4301 30.1296H50.36V45.9896H34.86V30.1296H36.7401L33.3401 28.1996V32.1595H30.1401V36.3796H33.3401V41.8696H30.1401V46.7496C32.2201 46.9996 34.61 46.9996 37.61 46.9996H50.3701V52.4896H37.61C30.55 52.4896 26.18 52.3896 22.16 50.1996C22.01 50.9096 21.86 51.6696 21.6 52.4896L16.3101 51.1196C17.5801 46.0396 17.5301 41.3595 17.5301 35.7195H23.0201C23.0201 38.8695 23.07 41.5096 22.92 43.9996C23.53 44.4096 24.0901 44.7596 24.6501 45.0696V32.1595H16.3201V26.6696H22.0601V20.0596H17.3301V14.5696H22.0601V10.8096H27.55V14.5696H32.3301V20.0596H27.55V26.6696H33.3401V27.6396C34.1501 26.4696 36.3401 22.8596 36.6901 17.3196H34.5001V11.8296H50.36ZM44.8201 17.3196H42.1801C41.8801 24.3296 39.2801 28.6496 38.2701 30.1296H43.05V24.9496C43.91 24.9496 44.8301 24.1396 44.8301 21.4896V17.3196H44.8201ZM44.8201 40.4896V35.6096H40.35V40.4896H44.8201Z" fill="url(#paint1_radial_0_1)"/>
<defs>
<radialGradient id="paint0_radial_0_1" cx="0" cy="0" r="1" gradientUnits="userSpaceOnUse" gradientTransform="translate(33.21 32.7095) scale(32.69)">
<stop stop-color="#4C1A57"/>
<stop offset="1" stop-color="#911AAD"/>
</radialGradient>
<radialGradient id="paint1_radial_0_1" cx="0" cy="0" r="1" gradientUnits="userSpaceOnUse" gradientTransform="translate(33.3401 31.6496) scale(19.03 19.03)">
<stop stop-color="#4C1A57"/>
<stop offset="1" stop-color="#911AAD"/>
</radialGradient>
</defs>
</svg>
