<svg width="336" height="376" viewBox="0 0 336 376" fill="none" xmlns="http://www.w3.org/2000/svg">
<path d="M95.3788 160.984C93.4947 160.984 91.7201 160.042 90.6684 158.464C85.498 150.862 40.3008 83.2965 40.3008 55.1002C40.3008 24.735 65.0136 0 95.3788 0C125.744 0 150.479 24.735 150.479 55.1002C150.479 83.2965 105.282 150.884 100.133 158.464C99.0596 160.02 97.2849 160.984 95.3788 160.984ZM95.3788 11.4586C71.3233 11.4586 51.7589 31.0447 51.7589 55.1002C51.7589 73.8758 79.8895 121.067 95.3788 144.903C110.89 121.067 139.043 73.8758 139.043 55.1002C139.043 31.0228 119.456 11.4586 95.3788 11.4586ZM95.3788 89.7158C77.6548 89.7158 63.217 75.2777 63.217 57.5537C63.217 39.8297 77.6548 25.4141 95.3788 25.4141C113.103 25.4141 127.541 39.8078 127.541 57.5537C127.541 75.2996 113.147 89.7158 95.3788 89.7158ZM95.3788 36.8941C83.9864 36.8941 74.6973 46.1613 74.6973 57.5757C74.6973 68.99 83.9645 78.2796 95.3788 78.2796C106.793 78.2796 116.082 69.0119 116.082 57.5757C116.082 46.1394 106.815 36.8941 95.3788 36.8941Z" fill="#474F59"/>
<path d="M140.664 282.357C140.028 282.357 139.393 282.292 138.758 282.051L38.811 247.172C36.4887 246.361 34.9551 244.214 34.9551 241.782V158.42C34.9551 156.558 35.8533 154.828 37.365 153.732C38.8766 152.681 40.8046 152.396 42.5573 153.009L142.526 187.931C144.848 188.742 146.36 190.911 146.36 193.321V276.683C146.36 278.567 145.484 280.276 143.972 281.349C142.986 282.05 141.825 282.401 140.642 282.401L140.664 282.357ZM46.4132 237.686L134.946 268.598V197.352L46.4132 166.439V237.686Z" fill="#474F59"/>
<path d="M106.947 203.289C106.312 203.289 105.676 203.202 105.063 202.983L72.5286 191.656C69.5491 190.605 67.9717 187.34 69.0233 184.36C70.053 181.381 73.3176 179.803 76.319 180.833L108.831 192.182C111.811 193.234 113.388 196.476 112.38 199.455C111.526 201.821 109.335 203.289 106.969 203.289H106.947Z" fill="#474F59"/>
<path d="M56.6448 202.457C56.0314 202.457 55.3961 202.325 54.7826 202.106C51.7812 201.055 50.1161 197.769 51.1677 194.789C52.1974 191.81 55.3961 190.232 58.3537 191.24L58.5509 191.306C61.5304 192.335 63.108 195.622 62.0564 198.579C61.2239 200.946 59.0109 202.435 56.6448 202.435V202.457Z" fill="#474F59"/>
<path d="M111.373 221.539C110.759 221.539 110.102 221.452 109.488 221.189C106.509 220.159 104.756 216.851 105.786 213.85C106.837 210.892 109.905 209.227 112.906 210.257L113.213 210.388C116.214 211.439 117.814 214.682 116.784 217.684C115.951 220.05 113.739 221.539 111.373 221.539ZM97.6798 216.764C97.0444 216.764 96.4091 216.676 95.7518 216.413C92.7942 215.361 91.0633 212.009 92.1368 209.03C93.1885 206.05 96.3214 204.429 99.279 205.524L99.5858 205.656C102.587 206.729 104.121 209.972 103.047 212.951C102.215 215.296 100.024 216.764 97.6578 216.764H97.6798ZM84.0089 211.987C83.3735 211.987 82.7599 211.9 82.1245 211.681C79.1449 210.651 77.4143 207.343 78.444 204.363C79.4737 201.362 82.5628 199.719 85.5424 200.77L85.893 200.858C88.8725 201.91 90.4499 205.152 89.3983 208.153C88.5877 210.497 86.375 211.987 84.0089 211.987ZM70.3377 207.233C69.7243 207.233 69.067 207.146 68.4536 206.927C65.4521 205.875 63.7215 202.589 64.7512 199.587C65.8028 196.608 68.8919 194.943 71.8715 195.994L72.2221 196.125C75.2016 197.155 76.779 200.42 75.7274 203.399C74.9168 205.765 72.7038 207.255 70.3377 207.255V207.233Z" fill="#474F59"/>
<path d="M124.911 226.25C124.276 226.25 123.64 226.162 123.005 225.899C120.025 224.869 118.36 221.583 119.412 218.582C120.442 215.624 123.619 214.025 126.62 215.033L126.795 215.098C129.797 216.15 131.352 219.414 130.3 222.394C129.468 224.738 127.255 226.228 124.911 226.228V226.25Z" fill="#474F59"/>
<path d="M56.6448 219.151C56.0314 219.151 55.3961 219.041 54.7826 218.8C51.7812 217.749 50.1161 214.462 51.1677 211.483C52.1974 208.481 55.3961 206.882 58.3537 207.934L58.5509 208C61.5304 209.029 63.108 212.293 62.0564 215.273C61.2239 217.639 59.0109 219.129 56.6448 219.129V219.151Z" fill="#474F59"/>
<path d="M111.373 238.212C110.759 238.212 110.102 238.124 109.488 237.905C106.509 236.875 104.756 233.567 105.786 230.587C106.837 227.586 109.905 225.921 112.884 226.995L113.235 227.082C116.236 228.112 117.836 231.377 116.784 234.378C115.973 236.722 113.761 238.212 111.395 238.212H111.373ZM97.6798 233.457C97.0444 233.457 96.4091 233.37 95.7518 233.107C92.7942 232.056 91.0633 228.725 92.1368 225.724C93.1885 222.744 96.3214 221.123 99.279 222.219L99.5858 222.306C102.587 223.38 104.121 226.644 103.047 229.623C102.215 231.968 100.024 233.436 97.6578 233.436L97.6798 233.457ZM84.0089 228.682C83.3735 228.682 82.7599 228.594 82.1245 228.375C79.1449 227.345 77.4143 224.037 78.444 221.036C79.4737 218.078 82.5628 216.413 85.5424 217.442L85.893 217.596C88.8725 218.625 90.4499 221.868 89.3983 224.848C88.5877 227.214 86.375 228.703 84.0089 228.703V228.682ZM70.3377 223.906C69.7243 223.906 69.067 223.818 68.4536 223.621C65.4521 222.591 63.7215 219.261 64.7512 216.282C65.8028 213.302 68.8919 211.637 71.8715 212.688L72.2221 212.82C75.2016 213.85 76.779 217.092 75.7274 220.094C74.9168 222.46 72.7038 223.928 70.3377 223.928V223.906Z" fill="#474F59"/>
<path d="M124.911 242.922C124.276 242.922 123.64 242.835 123.005 242.616C120.025 241.586 118.36 238.278 119.412 235.298C120.442 232.318 123.619 230.719 126.62 231.749L126.795 231.814C129.797 232.866 131.352 236.109 130.3 239.088C129.468 241.454 127.255 242.922 124.911 242.922Z" fill="#474F59"/>
<path d="M124.912 259.638C124.276 259.638 123.641 259.551 123.006 259.332L54.6073 235.452C51.6277 234.422 50.0503 231.135 51.1019 228.156C52.1536 225.176 55.3959 223.621 58.3755 224.65L126.818 248.531C129.819 249.583 131.375 252.847 130.323 255.826C129.512 258.192 127.278 259.66 124.934 259.66L124.912 259.638Z" fill="#474F59"/>
<path d="M335.671 133.905C335.628 133.774 335.606 133.687 335.54 133.555L335.518 133.511C335.365 133.139 335.233 132.788 335.014 132.46C335.014 132.46 335.014 132.438 334.992 132.438C334.992 132.438 334.97 132.416 334.97 132.394C334.904 132.306 334.817 132.174 334.751 132.087C334.488 131.736 334.203 131.452 333.875 131.189C333.853 131.189 333.853 131.167 333.831 131.167C333.831 131.167 333.824 131.16 333.809 131.145C333.809 131.145 333.721 130.991 333.634 130.948C333.612 130.948 333.568 130.904 333.546 130.882C333.13 130.597 332.67 130.378 332.188 130.181C332.188 130.181 332.173 130.174 332.144 130.159L213.159 88.6426C211.932 88.2044 210.596 88.2044 209.369 88.6426L157.752 106.651L157.533 106.586L157.489 106.761L120.683 119.599C123.641 120.344 126.489 121.264 129.359 122.294C129.403 122.294 129.446 122.316 129.512 122.338C130.87 122.82 132.229 123.367 133.565 123.915C133.719 123.959 133.85 124.069 134.003 124.112C135.274 124.616 136.501 125.186 137.75 125.777L152.669 120.585L152.56 121.002L253.602 156.274L211.319 171.04L176.09 158.728C179.332 163.504 182.115 168.543 184.459 173.757L205.579 181.162V268.249L180.559 259.507C178.653 262.925 176.572 266.255 174.249 269.454L209.413 281.744C210.048 281.941 210.683 282.051 211.319 282.051C211.954 282.051 212.545 281.919 213.115 281.744H213.181L332.166 240.184C334.466 239.395 336 237.226 336 234.794V135.57C336 135.001 335.868 134.497 335.737 133.971L335.671 133.905ZM266.331 250.962L216.949 268.205V181.118L266.331 163.876V250.962ZM175.082 112.676L211.231 100.035L312.821 135.505L276.431 148.234L276.475 148.058L175.082 112.676ZM324.476 230.675L281.601 245.617V158.552L324.476 143.589V230.675Z" fill="#474F59"/>
<path d="M257.59 338.312L215.657 296.4C213.444 294.144 209.829 294.144 207.572 296.4L203.914 300.06L173.79 269.957C186.014 253.482 192.609 233.633 192.609 212.754C192.609 187.011 182.597 162.824 164.391 144.64C152.889 133.138 139.043 124.945 123.882 120.432C121.844 123.981 119.829 127.42 117.879 130.663C132.251 134.387 145.462 141.946 156.285 152.747C172.322 168.762 181.129 190.1 181.129 212.754C181.129 232.537 174.425 251.247 162.09 266.342L149.865 278.567C134.748 290.924 116.017 297.606 96.2772 297.606C73.6019 297.606 52.2629 288.798 36.2697 272.761C3.16594 239.679 3.16594 185.829 36.2697 152.747C46.6982 142.296 59.3613 134.935 73.2075 131.035C71.2576 127.814 69.2201 124.397 67.2045 120.87C52.6354 125.47 39.271 133.511 28.1634 144.618C-9.3878 182.169 -9.3878 243.295 28.1634 280.846C46.3475 299.03 70.5347 309.064 96.2772 309.064C117.134 309.064 137.005 302.47 153.48 290.267L183.583 320.369L179.924 324.027C177.689 326.284 177.689 329.877 179.924 332.133L221.835 374.045C222.952 375.162 224.398 375.731 225.888 375.731C227.378 375.731 228.824 375.162 229.919 374.045L257.612 346.374C259.824 344.117 259.824 340.524 257.612 338.268L257.59 338.312ZM162.266 282.883C162.967 282.226 163.69 281.547 164.391 280.868C165.07 280.167 165.727 279.444 166.384 278.743L195.807 308.166L191.645 312.284L162.244 282.883H162.266ZM225.888 361.907L192.061 328.102L195.72 324.443H195.742L207.945 312.218L211.626 308.538L245.452 342.386L225.866 361.951L225.888 361.907Z" fill="#474F59"/>
</svg>
