<svg width="302" height="335" viewBox="0 0 302 335" fill="none" xmlns="http://www.w3.org/2000/svg">
<path d="M183.55 114.402H88.4313C84.9685 114.402 82.1982 111.61 82.1982 108.169C82.1982 104.727 84.9685 101.914 88.4313 101.914H183.55C187.013 101.914 189.805 104.706 189.805 108.169C189.805 111.631 187.013 114.402 183.55 114.402Z" fill="#474F59"/>
<path d="M116.48 78.4976H32.0529C28.6117 78.4976 25.8198 75.7054 25.8198 72.2426C25.8198 68.7798 28.6117 66.0098 32.0529 66.0098H116.48C119.943 66.0098 122.713 68.7798 122.713 72.2426C122.713 75.7054 119.943 78.4976 116.48 78.4976Z" fill="#474F59"/>
<path d="M144.529 149.766H88.4313C84.9685 149.766 82.1982 146.974 82.1982 143.533C82.1982 140.092 84.9685 137.3 88.4313 137.3H144.529C147.97 137.3 150.762 140.07 150.762 143.533C150.762 146.996 147.97 149.766 144.529 149.766Z" fill="#474F59"/>
<path d="M144.529 185.173H88.4313C84.9685 185.173 82.1982 182.381 82.1982 178.918C82.1982 175.456 84.9685 172.686 88.4313 172.686H144.529C147.97 172.686 150.762 175.477 150.762 178.918C150.762 182.36 147.97 185.173 144.529 185.173Z" fill="#474F59"/>
<path d="M216.88 334.81C169.938 334.81 131.782 296.611 131.782 249.69C131.782 202.769 169.916 164.613 216.88 164.613C263.845 164.613 302 202.769 302 249.69C302 296.611 263.801 334.81 216.88 334.81ZM216.88 177.058C176.82 177.058 144.27 209.63 144.27 249.69C144.27 289.751 176.82 322.322 216.88 322.322C256.941 322.322 289.491 289.751 289.491 249.69C289.491 209.63 256.919 177.058 216.88 177.058Z" fill="#474F59"/>
<path d="M131.782 249.691C131.782 247.592 131.89 245.514 132.02 243.458H32.0529C28.6117 243.458 25.8198 246.25 25.8198 249.691C25.8198 253.132 28.6117 255.945 32.0529 255.945H132.02C131.89 253.868 131.782 251.79 131.782 249.691Z" fill="#474F59"/>
<path d="M142.711 208.07H88.4535C84.9907 208.07 82.2207 210.884 82.2207 214.325C82.2207 217.766 84.9907 220.558 88.4535 220.558H136.954C138.556 216.23 140.504 212.074 142.733 208.07H142.711Z" fill="#474F59"/>
<path d="M137.69 280.855H12.5094V12.4878H144.616V72.2425C144.616 75.7053 147.407 78.4975 150.87 78.4975H210.604V164.829C212.681 164.699 214.759 164.592 216.858 164.592C218.958 164.592 221.035 164.699 223.113 164.829V72.2425C223.113 71.8313 223.048 71.4639 223.005 71.0959C222.983 71.0743 222.983 71.0309 222.983 71.0093C222.875 70.4682 222.702 69.9705 222.442 69.4944C222.355 69.3645 222.312 69.2777 222.247 69.1694C221.988 68.6717 221.641 68.2175 221.273 67.8495L155.264 1.83983C154.896 1.42862 154.441 1.1252 153.943 0.86549C153.835 0.800562 153.727 0.735973 153.619 0.671045C153.143 0.432977 152.645 0.238195 152.104 0.129982H152.017C151.606 0.0434119 151.238 0 150.87 0H6.27639C2.81358 0 0 2.79165 0 6.25446V287.066C0 290.529 2.81358 293.321 6.27639 293.321H143.858C141.456 289.361 139.421 285.184 137.69 280.834V280.855ZM157.125 21.3398L201.817 66.0314H157.125V21.3398Z" fill="#474F59"/>
<path d="M241.769 247.98C238.653 246.248 234.67 244.69 229.801 243.218C228.091 242.677 225.819 242.049 223.157 241.335V216.057C223.525 216.144 223.957 216.165 224.347 216.208L231.878 218.524C234.627 219.346 236.727 219.758 238.263 219.758C240.492 219.758 242.289 219.087 243.609 217.745C244.907 216.382 245.578 214.607 245.578 212.442C245.578 210.581 244.778 209.066 243.133 207.919C238.198 204.348 231.554 202.27 223.135 201.643V196.644C223.135 193.202 220.343 190.389 216.88 190.389C213.418 190.389 210.647 193.202 210.647 196.644V201.859C203.462 202.768 197.251 205.214 191.97 209.153C184.763 214.498 181.148 221.532 181.148 230.232C181.148 238.435 185.217 244.495 193.333 248.456C197.077 250.23 201.016 251.702 205.172 252.828C207.184 253.325 208.981 253.758 210.647 254.191V284.079C207.358 283.646 203.592 282.802 199.22 281.439C193.853 279.794 190.087 278.928 187.966 278.928C185.845 278.928 184.027 279.534 182.772 280.79C181.343 282.175 180.607 283.885 180.607 285.897C180.607 288.213 181.646 290.074 183.724 291.568C189.416 295.636 198.398 297.93 210.626 298.45V302.757C210.626 306.219 213.396 309.012 216.859 309.012C220.321 309.012 223.113 306.219 223.113 302.757V298.147C230.667 297.216 237.224 294.771 242.721 290.702C250.231 285.248 253.954 277.998 253.954 268.973C253.954 259.948 249.885 252.503 241.748 247.98H241.769ZM200.302 227.679C200.302 223.718 202.185 220.601 205.972 218.329C207.379 217.442 208.959 216.814 210.647 216.36V237.764C203.787 235.189 200.302 231.834 200.302 227.679ZM228.437 280.833C226.857 281.872 225.061 282.672 223.135 283.257V257.502C230.818 260.316 234.735 264.298 234.735 269.406C234.735 274.513 232.636 278.106 228.437 280.855V280.833Z" fill="#474F59"/>
<path d="M48.6953 149.767C46.9206 149.767 45.1893 148.987 43.9774 147.581L27.3124 128.146C25.0833 125.527 25.3648 121.609 28.0051 119.359C30.6239 117.086 34.5411 117.411 36.7919 120.03L46.9857 131.933L58.5861 105.638C59.9928 102.478 63.6719 101.028 66.8101 102.435C69.9699 103.82 71.4201 107.498 70.0134 110.658L54.4523 146.022C53.5649 147.992 51.7686 149.377 49.6044 149.702C49.323 149.723 49.0199 149.745 48.6953 149.745V149.767Z" fill="#474F59"/>
<path d="M48.6953 220.537C46.9206 220.537 45.1893 219.758 43.9774 218.351L27.3124 198.916C25.0833 196.276 25.3648 192.337 28.0051 190.108C30.6239 187.879 34.5411 188.16 36.7919 190.8L46.9857 202.704L58.5861 176.408C59.9928 173.248 63.6503 171.798 66.8101 173.205C69.9699 174.59 71.4201 178.27 70.0134 181.429L54.4523 216.793C53.5649 218.762 51.7686 220.148 49.6044 220.473C49.323 220.494 49.0199 220.537 48.6953 220.537Z" fill="#474F59"/>
</svg>
