<svg width="362" height="119" viewBox="0 0 362 119" fill="none" xmlns="http://www.w3.org/2000/svg">
<path d="M97.1432 3.00185V30.3434C97.1432 44.8835 91.963 52.5049 83.1865 54.8032H97.1432V99.7095H53.2489V54.8032H58.572L48.9261 49.3374V60.5669H39.8639V72.511H48.9261V88.0515H39.8639V101.865C45.7585 102.58 52.5225 102.58 61.0131 102.58H97.1313V118.12H61.0131C41.0071 118.12 28.6343 117.834 17.2619 111.642C16.8332 113.654 16.4045 115.81 15.6781 118.12L0.709229 114.238C4.30555 99.8527 4.16268 86.6104 4.16268 70.6294H19.7031C19.7031 79.5488 19.8461 87.0391 19.4174 94.0888C21.1441 95.2439 22.7279 96.2443 24.3117 97.1136V60.555H0.709229V45.0146H16.9761V26.3066H3.5911V10.7661H16.9761V0.120117H32.5165V10.7661H46.0444V26.3066H32.5165V45.0146H48.9261V47.7535C51.2245 44.443 57.4169 34.2256 58.4291 18.5423H52.2367V3.00185H97.1432ZM81.4598 18.5423H73.9814C73.1121 38.4054 65.7766 50.6353 62.8948 54.8032H76.4226V40.1204C78.8638 40.1204 81.4598 37.8221 81.4598 30.3317V18.5304V18.5423ZM81.4598 84.1694V70.3556H68.8013V84.1694H81.4598Z" fill="url(#paint0_linear_0_1)"/>
<path d="M172.118 0.120117C172.118 3.85934 171.975 7.45573 171.689 10.9092H229.54V26.4496H169.093L166.509 35.0832H229.54V92.9338C229.54 110.784 221.764 118.12 205.938 118.12H197.161V102.58H205.938C211.261 102.58 214 100.424 214 92.9338H163.77V118.12H148.23V66.7473C144.348 71.0581 141.609 73.0826 141.609 73.0826L132.975 60.1262C132.975 60.1262 146.074 48.4682 152.696 26.4496H133.261V10.9092H155.994C156.423 7.45573 156.566 3.85934 156.566 0.120117H172.106H172.118ZM214 50.6353H163.77V59.8404H214V50.6353ZM214 81.0016V71.7964H163.77V81.0016H214Z" fill="url(#paint1_linear_0_1)"/>
<path d="M310.863 60.5553V118.12H265.527V60.5553H310.863ZM269.85 52.7791V2.99023H357.639V52.7791H269.85ZM295.322 102.568V76.0839H281.08V102.568H295.322ZM285.391 18.5188V37.2267H342.098V18.5188H285.391ZM316.614 118.108V60.5434H361.949V118.108H316.614ZM332.155 76.0839V102.568H346.397V76.0839H332.155Z" fill="url(#paint2_linear_0_1)"/>
<defs>
<linearGradient id="paint0_linear_0_1" x1="0.721137" y1="59.1261" x2="361.95" y2="59.1261" gradientUnits="userSpaceOnUse">
<stop stop-color="#911AAD"/>
<stop offset="1" stop-color="#4C1A57"/>
</linearGradient>
<linearGradient id="paint1_linear_0_1" x1="0.721212" y1="59.1261" x2="361.949" y2="59.1261" gradientUnits="userSpaceOnUse">
<stop stop-color="#911AAD"/>
<stop offset="1" stop-color="#4C1A57"/>
</linearGradient>
<linearGradient id="paint2_linear_0_1" x1="0.720974" y1="59.1263" x2="361.949" y2="59.1263" gradientUnits="userSpaceOnUse">
<stop stop-color="#911AAD"/>
<stop offset="1" stop-color="#4C1A57"/>
</linearGradient>
</defs>
</svg>
