<svg width="316" height="305" viewBox="0 0 316 305" fill="none" xmlns="http://www.w3.org/2000/svg">
<path d="M266.445 304.415H131.465C121.574 304.415 113.495 296.337 113.495 286.446V182.842C113.495 171.881 122.993 160.2 135.024 145.396C146.334 131.487 159.173 115.723 164.326 99.6744C166.531 92.7966 163.583 70.2634 160.788 56.4641C160.111 53.2545 161.553 50.0011 164.347 48.2762C165.985 47.2718 172.754 43.8007 189.129 44.412C208.802 45.1981 223.824 66.2677 226.597 96.8358C227.907 111.596 226.444 124.631 224.632 134.042H285.484C286.947 134.042 288.388 134.216 289.873 134.544C304.983 137.098 315.922 150.112 315.922 165.462C315.922 172.427 313.694 178.977 309.611 184.37C313.694 189.741 315.922 196.335 315.922 203.278C315.922 210.222 313.367 217.602 308.803 223.148C311.402 227.799 312.777 233.017 312.777 238.41C312.777 250.113 306.183 260.659 296.249 266.052C296.751 268.323 297.013 270.616 297.013 272.93C297.013 289.219 284.786 302.669 268.628 304.197C268.082 304.263 267.253 304.35 266.423 304.35L266.445 304.415ZM177.361 60.4381C179.435 72.316 182.448 94.0634 179.129 104.457C173.059 123.278 159.26 140.221 147.076 155.2C138.626 165.615 129.063 177.405 129.063 182.842V286.446C129.063 287.799 130.133 288.891 131.465 288.891H266.445C266.576 288.891 266.729 288.869 266.86 288.848C275.331 288.018 281.467 281.249 281.467 273.018C281.467 270.354 280.79 267.734 279.502 265.332C278.323 263.192 278.235 260.616 279.262 258.367C280.288 256.162 282.297 254.524 284.698 254.022C291.947 252.45 297.253 245.943 297.253 238.476C297.253 234.458 295.703 230.593 292.93 227.646C291.423 226.03 290.659 223.847 290.834 221.641C291.03 219.436 292.166 217.405 293.978 216.095C298.061 213.06 300.397 208.409 300.397 203.366C300.397 198.322 298.061 193.715 294 190.659C292.056 189.196 290.899 186.903 290.899 184.436C290.899 181.968 292.035 179.697 294 178.213C298.061 175.156 300.397 170.527 300.397 165.505C300.397 157.689 294.808 151.116 287.122 149.872C286.947 149.85 286.751 149.806 286.576 149.763C286.205 149.654 285.834 149.632 285.484 149.632H214.807C212.361 149.632 210.068 148.452 208.606 146.531C207.121 144.588 206.662 142.077 207.317 139.741C209.02 133.671 212.82 117.47 211.095 98.2554C208.889 73.6262 198.038 60.3509 188.518 60.0015C183.649 59.805 179.915 60.0451 177.339 60.4163L177.361 60.4381Z" fill="#474F59"/>
<path d="M80.2413 159.937H18.7994C8.42803 159.937 0 168.364 0 178.736V285.637C0 296.008 8.42803 304.436 18.7994 304.436H80.2413C90.6126 304.436 99.0406 296.008 99.0406 285.637V178.736C99.0406 168.364 90.6126 159.937 80.2413 159.937ZM57.4462 288.869H41.5944V244.457C41.5944 240.09 45.1534 236.532 49.5203 236.532C53.8872 236.532 57.4462 240.09 57.4462 244.457V288.869ZM83.4946 285.615C83.4946 287.406 82.0317 288.869 80.2413 288.869H69.1275V244.064C68.9092 233.453 60.1973 224.828 49.5203 224.828C38.8433 224.828 30.1314 233.453 29.9349 244.064C29.9349 244.13 29.913 244.217 29.913 244.282V288.847H18.7994C17.0089 288.847 15.5461 287.384 15.5461 285.593V178.692C15.5461 176.902 17.0089 175.439 18.7994 175.439H80.2413C82.0317 175.439 83.4946 176.902 83.4946 178.692V285.593V285.615Z" fill="#474F59"/>
<path d="M145.613 31.4196C141.879 29.3016 137.141 30.5682 135.002 34.3019L134.827 34.5641C132.665 38.2978 133.932 43.0574 137.643 45.219C138.866 45.9177 140.198 46.2671 141.552 46.2671C144.216 46.2671 146.836 44.8914 148.255 42.4023L148.473 42.0095C150.613 38.2758 149.325 33.5375 145.613 31.3977V31.4196Z" fill="#474F59"/>
<path d="M137.709 92.534C133.976 94.5865 132.578 99.3247 134.674 103.08L134.98 103.604C136.377 106.05 138.888 107.338 141.465 107.338C142.797 107.338 144.172 106.988 145.417 106.29C149.129 104.172 150.33 99.3248 148.277 95.5912C146.225 91.8138 141.487 90.4379 137.709 92.534Z" fill="#474F59"/>
<path d="M247.733 46.2669C249.043 46.2669 250.397 45.9394 251.619 45.2407C255.353 43.0791 256.598 38.3408 254.458 34.6071L254.261 34.2361C252.1 30.5243 247.427 29.4108 243.715 31.5942C239.982 33.734 238.846 38.6684 241.008 42.3803C242.449 44.8694 245.069 46.2669 247.755 46.2669H247.733Z" fill="#474F59"/>
<path d="M160.373 9.083L159.98 9.32341C156.246 11.485 155.133 16.179 157.294 19.869C158.736 22.3582 161.356 23.6901 164.063 23.6901C165.395 23.6901 166.792 23.3189 168.059 22.5983C171.792 20.5022 173.081 15.7427 170.985 12.009C168.867 8.27532 164.107 6.96507 160.373 9.083Z" fill="#474F59"/>
<path d="M141.225 69.1052V68.7123C141.225 64.4328 137.709 61.0703 133.43 61.0703C129.15 61.0703 125.679 64.6951 125.679 68.9746V69.1052C125.679 73.4066 129.15 76.8784 133.43 76.8784C137.709 76.8784 141.225 73.4066 141.225 69.1052Z" fill="#474F59"/>
<path d="M229.261 9.301L228.955 9.12616C225.243 6.96456 220.505 8.23103 218.344 11.9429C216.182 15.6547 217.426 20.4149 221.116 22.5765L221.509 22.7726C222.732 23.4932 224.042 23.8206 225.352 23.8206C228.038 23.8206 230.68 22.4013 232.099 19.9122C234.239 16.1785 232.973 11.4189 229.239 9.301H229.261Z" fill="#474F59"/>
<path d="M255.833 60.9399C251.554 60.9399 248.082 64.4117 248.082 68.7131V69.259C248.016 73.5385 251.444 77.0541 255.746 77.1414H255.855C260.091 77.1414 263.563 73.7352 263.606 69.4775V68.7131C263.628 64.4117 260.156 60.9399 255.855 60.9399H255.833Z" fill="#474F59"/>
<path d="M251.488 93.0146C247.776 90.853 242.907 92.2724 240.767 95.9624C238.584 99.6524 239.829 104.413 243.497 106.596C244.741 107.317 246.073 107.666 247.427 107.666C250.113 107.666 252.689 106.312 254.13 103.867L254.37 103.473C256.51 99.7615 255.156 95.1762 251.466 93.0146H251.488Z" fill="#474F59"/>
<path d="M194.631 0H194.457C190.155 0 186.684 3.47179 186.684 7.77316C186.684 12.0745 190.155 15.5458 194.457 15.5458H194.828C199.129 15.5458 202.514 12.0745 202.514 7.77316C202.514 3.47179 198.933 0 194.631 0Z" fill="#474F59"/>
</svg>
