<svg width="408" height="286" viewBox="0 0 408 286" fill="none" xmlns="http://www.w3.org/2000/svg">
<path d="M206.875 205.557C203.625 205.557 201.012 202.943 201.012 199.693V173.626C201.012 170.399 203.625 167.763 206.875 167.763C210.125 167.763 212.716 170.399 212.716 173.626V199.693C212.716 202.943 210.102 205.557 206.875 205.557Z" fill="#474F59"/>
<path d="M407.909 104.13C407.909 103.835 407.818 103.585 407.727 103.29C407.704 103.085 407.681 102.88 407.636 102.699C407.522 102.176 407.318 101.721 407.045 101.267C406.954 101.039 406.818 100.858 406.704 100.699C406.545 100.517 406.5 100.335 406.363 100.176L339.844 2.54502C338.776 0.954204 336.958 0 335.004 0H201.057C199.102 0 197.307 0.954204 196.216 2.54502L129.265 100.858H129.242C128.992 101.267 128.765 101.676 128.583 102.131C128.561 102.267 128.515 102.38 128.492 102.494C128.402 102.835 128.333 103.198 128.288 103.539C128.265 103.698 128.242 103.812 128.242 103.971C128.242 103.994 128.22 104.062 128.22 104.153C128.22 125.856 145.878 143.492 167.581 143.492C181.739 143.492 194.125 135.947 201.079 124.72C207.988 135.969 220.374 143.492 234.577 143.492C248.781 143.492 261.144 135.947 268.076 124.72C275.007 135.969 287.393 143.492 301.574 143.492C315.755 143.492 328.118 135.947 335.049 124.72C342.003 135.969 354.412 143.492 368.547 143.492C389.819 143.492 407.181 126.515 407.84 105.38C407.909 104.971 408 104.585 408 104.153L407.909 104.13ZM390.91 98.29H339.208L309.687 11.7037H331.89L390.91 98.29ZM262.167 11.7037V98.29H209.215L238.714 11.7037H262.167ZM273.871 11.7037H297.301L326.822 98.29H273.871V11.7037ZM204.147 11.7037H226.351L196.852 98.29H145.151L204.147 11.7037ZM167.558 131.788C154.332 131.788 143.242 122.425 140.537 110.016H194.557C191.875 122.425 180.785 131.788 167.558 131.788ZM234.532 131.788C221.305 131.788 210.215 122.425 207.533 110.016H261.53C258.871 122.425 247.736 131.788 234.532 131.788ZM301.506 131.788C288.279 131.788 277.189 122.425 274.507 110.016H328.504C325.8 122.425 314.709 131.788 301.506 131.788ZM368.456 131.788C355.253 131.788 344.14 122.425 341.458 110.016H395.478C392.773 122.425 381.683 131.788 368.456 131.788Z" fill="#474F59"/>
<path d="M220.829 140.947V279.689C220.829 282.916 223.442 285.552 226.692 285.552C229.942 285.552 232.532 282.916 232.532 279.689V143.355C228.419 143.151 224.487 142.333 220.829 140.947Z" fill="#474F59"/>
<path d="M374.525 142.969V273.848H161.492V142.969C157.31 142.333 153.401 141.015 149.742 139.197V279.689C149.742 282.916 152.378 285.552 155.606 285.552H380.343C383.593 285.552 386.183 282.916 386.183 279.689V139.197C382.593 141.015 378.638 142.31 374.502 142.969H374.525Z" fill="#474F59"/>
<path d="M303.96 261.122C274.485 261.122 250.509 237.146 250.509 207.67C250.509 178.194 274.485 154.196 303.96 154.196C333.436 154.196 357.435 178.172 357.435 207.67C357.435 237.168 333.459 261.122 303.96 261.122ZM303.96 165.9C280.962 165.9 262.235 184.648 262.235 207.693C262.235 230.737 280.962 249.418 303.96 249.418C326.959 249.418 345.708 230.714 345.708 207.693C345.708 184.671 326.982 165.9 303.96 165.9Z" fill="#474F59"/>
<path d="M56.3828 285.552C33.7932 285.552 11.0444 279.598 11.0444 266.394C11.0444 253.19 33.7932 247.304 56.3828 247.304C78.9725 247.304 101.676 253.19 101.676 266.394C101.676 279.598 78.927 285.552 56.3828 285.552ZM22.9983 266.394C25.1119 268.849 36.5658 273.826 56.3828 273.826C76.1999 273.826 87.6311 268.826 89.7446 266.394C87.6311 264.008 76.1772 259.008 56.3828 259.008C36.5885 259.008 25.1119 264.008 22.9983 266.394Z" fill="#474F59"/>
<path d="M56.3832 269.644C54.4288 269.644 52.6107 268.667 51.5198 267.076C46.2474 259.304 0 190.148 0 161.286C0 130.197 25.2713 104.903 56.3832 104.903C87.4951 104.903 112.744 130.197 112.744 161.286C112.744 190.148 66.4963 259.304 61.2011 267.076C60.133 268.667 58.3376 269.644 56.3832 269.644ZM56.3832 116.629C31.7255 116.629 11.6811 136.651 11.6811 161.286C11.6811 180.49 40.5205 228.828 56.3832 253.19C72.246 228.805 101.04 180.49 101.04 161.286C101.04 136.651 81.0182 116.629 56.3832 116.629ZM56.3832 196.693C38.2251 196.693 23.4531 181.944 23.4531 163.809C23.4531 145.673 38.2251 130.924 56.3832 130.924C74.5413 130.924 89.2449 145.673 89.2449 163.809C89.2449 181.944 74.5186 196.693 56.3832 196.693ZM56.3832 142.628C44.702 142.628 35.2026 152.128 35.2026 163.809C35.2026 175.49 44.702 184.989 56.3832 184.989C68.0644 184.989 77.5637 175.467 77.5637 163.809C77.5637 152.15 68.0416 142.628 56.3832 142.628Z" fill="#474F59"/>
<path d="M319.731 206.579C317.777 205.511 315.255 204.511 312.164 203.556C311.55 203.374 310.755 203.125 309.891 202.898V186.898L313.482 187.989C315.209 188.512 316.55 188.762 317.527 188.762C318.936 188.762 320.05 188.308 320.891 187.467C321.731 186.626 322.141 185.512 322.141 184.126C322.141 182.944 321.618 182.035 320.595 181.285C317.868 179.308 314.277 178.081 309.868 177.535V176.672C309.868 173.445 307.255 170.831 304.005 170.831C300.755 170.831 298.165 173.445 298.165 176.672V177.854C294.46 178.604 291.142 179.944 288.324 182.08C283.756 185.466 281.484 189.898 281.484 195.375C281.484 200.852 284.052 204.42 289.165 206.897C291.506 208.057 294.006 208.965 296.642 209.67C297.187 209.806 297.665 209.943 298.165 210.033V229.055C296.574 228.737 294.824 228.305 292.892 227.714C289.506 226.669 287.12 226.146 285.779 226.146C284.438 226.146 283.302 226.533 282.506 227.305C281.62 228.169 281.166 229.26 281.166 230.532C281.166 232.009 281.825 233.214 283.12 234.123C286.415 236.441 291.46 237.873 298.187 238.35V238.691C298.187 241.918 300.846 244.531 304.028 244.531C307.21 244.531 309.891 241.918 309.891 238.691V237.918C313.868 237.191 317.368 235.805 320.368 233.578C325.118 230.146 327.458 225.578 327.458 219.897C327.458 214.215 324.868 209.511 319.731 206.647V206.579ZM293.574 193.762C293.574 191.262 294.778 189.307 297.142 187.876C297.437 187.694 297.846 187.603 298.165 187.444V199.307C295.119 197.807 293.574 195.966 293.574 193.762ZM311.3 227.305C310.868 227.601 310.368 227.85 309.868 228.078V213.374C313.459 215.079 315.3 217.306 315.3 220.055C315.3 223.146 313.982 225.578 311.3 227.305Z" fill="#474F59"/>
</svg>
